<svg width="24" height="24" viewBox="0 0 24 24" xmlns="http://www.w3.org/2000/svg">
    <g fill="#FFF" fill-rule="nonzero">
        <path d="M12.5 16A3.5 3.5 0 0 1 9 12.5v-6a3.5 3.5 0 1 1 7 0v6a3.5 3.5 0 0 1-3.5 3.5zm0-12A2.5 2.5 0 0 0 10 6.5v6a2.5 2.5 0 0 0 5 0v-6A2.5 2.5 0 0 0 12.5 4z"/>
        <path d="M12.5 18A5.51 5.51 0 0 1 7 12.5a.5.5 0 1 1 1 0 4.5 4.5 0 0 0 9 0 .5.5 0 1 1 1 0 5.51 5.51 0 0 1-5.5 5.5z"/>
        <path d="M12.5 22a.5.5 0 0 1-.5-.5v-4a.5.5 0 0 1 1 0v4a.5.5 0 0 1-.5.5z"/>
    </g>
</svg>
