<?xml version="1.0" encoding="UTF-8"?>
<svg width="20px" height="20px" viewBox="0 0 20 20" version="1.1" xmlns="http://www.w3.org/2000/svg" xmlns:xlink="http://www.w3.org/1999/xlink">
    <title>Item/Number</title>
    <g id="HU93:-Abrir-cuenta-movil" stroke="none" stroke-width="1" fill="none" fill-rule="evenodd">
        <g id="004---Opción-biometria--0023B" transform="translate(-34.000000, -234.000000)" fill="#E1111C" fill-rule="nonzero">
            <g id="Box-Copy" transform="translate(16.000000, 152.000000)">
                <g id="Item" transform="translate(18.000000, 80.000000)">
                    <g id="Item/Number" transform="translate(0.000000, 2.000000)">
                        <g id="Shape-Mask">
                            <g id="Capa_6">
                                <path d="M10,1 C14.9705628,1 19,5.02943727 19,10 C19,14.9705628 14.9705628,19 10,19 C5.02943727,19 1,14.9705628 1,10 C1,5.02943727 5.02943727,1 10,1 M10,0 C4.47715252,0 0,4.47715252 0,10 C0,15.5228476 4.47715252,20 10,20 C15.5228476,20 20,15.5228476 20,10 C20,7.34783513 18.9464317,4.80429599 17.0710679,2.9289322 C15.1957041,1.05356841 12.652165,0 10,0 L10,0 Z" id="Shape"></path>
                            </g>
                            
                        </g>
                        <g id="letter-x" transform="translate(6.000000, 5.998995)" stroke="#E1111C" stroke-width="0.2">
                            <path d="M0.11252582,0.667548279 C-0.0375086067,0.517513853 -0.0375086067,0.267806206 0.11252582,0.11252582 C0.267806206,-0.0375086067 0.512267894,-0.0375086067 0.667548279,0.11252582 L3.99803277,3.448606 L7.33411294,0.11252582 C7.48414737,-0.0375086067 7.73385501,-0.0375086067 7.88353971,0.11252582 C8.0388201,0.267806206 8.0388201,0.517863583 7.88353971,0.667548279 L4.55305522,3.9983825 L7.88353971,7.33446267 C8.0388201,7.4844971 8.0388201,7.73420475 7.88353971,7.88948513 C7.73350528,8.03951956 7.48379764,8.03951956 7.33411294,7.88948513 L3.99803277,4.55340496 L0.667548279,7.88948513 C0.512267894,8.03951956 0.267806206,8.03951956 0.11252582,7.88948513 C-0.0375086067,7.73420475 -0.0375086067,7.48414737 0.11252582,7.33446267 L3.44301031,3.9983825 L0.11252582,0.667548279 Z" id="Path"></path>
                        </g>
                    </g>
                </g>
            </g>
        </g>
    </g>
</svg>