<?xml version="1.0" encoding="UTF-8"?>
<svg width="32px" height="32px" viewBox="0 0 32 32" version="1.1" xmlns="http://www.w3.org/2000/svg" xmlns:xlink="http://www.w3.org/1999/xlink">
    <title>Group</title>
    <g id="Page-1" stroke="none" stroke-width="1" fill="none" fill-rule="evenodd">
        <g id="O020-Vivi-Calificación-Finalizar" transform="translate(-40.000000, -112.000000)" fill-rule="nonzero">
            <g id="Group" transform="translate(40.000000, 112.000000)">
                <circle id="Oval-Copy" fill="#F1F2F8" cx="16" cy="16" r="16"></circle>
                <g id="005-iconos/Generalicons/AsistenteVirtual" transform="translate(9.000000, 8.027778)" fill="#E1111C">
                    <g id="Group" transform="translate(0.000000, 0.000000)">
                        <path d="M13.2222223,5.83333336 L12.8333334,5.83333336 C12.8333334,2.6116723 10.2216611,1.77635684e-15 7,1.77635684e-15 C3.77833898,1.77635684e-15 1.16666667,2.6116723 1.16666667,5.83333336 L0.777777781,5.83333336 C0.348222974,5.83333336 1.77635684e-15,6.18155633 1.77635684e-15,6.61111114 L1.77635684e-15,9.72222226 C1.77635684e-15,10.1517771 0.348222974,10.5 0.777777781,10.5 L1.55555556,10.5 C1.55555556,10.9295549 1.90377854,11.2777778 2.33333334,11.2777778 C2.76288815,11.2777778 3.11111112,10.9295549 3.11111112,10.5 L3.11111112,5.83333336 C3.11111112,5.40377855 2.76288815,5.05555558 2.33333334,5.05555558 C2.21685052,5.05866133 2.10255405,5.08789996 1.9988889,5.14111113 C2.34089932,2.64534495 4.47313115,0.785378768 6.99222225,0.785378768 C9.51131335,0.785378768 11.6435452,2.64534495 11.9855556,5.14111113 C11.886607,5.09009989 11.7778609,5.0609241 11.6666667,5.05555558 C11.2371119,5.05555558 10.8888889,5.40377855 10.8888889,5.83333336 L10.8888889,10.5 C10.8888889,10.9295549 11.2371119,11.2777778 11.6666667,11.2777778 C11.7184251,11.28218 11.7704639,11.28218 11.8222223,11.2777778 C11.2818496,12.589765 10.2150031,13.6142763 8.88222226,14.1011112 C8.78338857,14.0508262 8.67422036,14.0241998 8.56333337,14.0233334 L5.44444447,14.0233334 C5.01488966,14.0233334 4.66666669,14.3715564 4.66666669,14.8011112 C4.66666669,15.230666 5.01488966,15.578889 5.44444447,15.578889 L8.55555559,15.578889 C8.9851104,15.578889 9.33333337,15.230666 9.33333337,14.8011112 C9.33333337,14.8011112 9.33333337,14.8011112 9.33333337,14.8011112 C11.1435415,14.0695341 12.4685272,12.481886 12.8644445,10.57 L13.2222223,10.57 C13.6517771,10.57 14,10.2217771 14,9.79222226 L14,6.68111114 C14.0197121,6.46299739 13.9465556,6.24668034 13.7985031,6.08530308 C13.6504505,5.92392581 13.4412232,5.83244443 13.2222223,5.83333336 Z" id="Path"></path>
                    </g>
                </g>
            </g>
        </g>
    </g>
</svg>