<svg width="24" height="24" viewBox="0 0 24 24" xmlns="http://www.w3.org/2000/svg">
    <g fill-rule="nonzero" fill="#6E6E6E">
        <g fill="#717171">
            <path d="M9.537 5.025a3.015 3.015 0 1 0 0 6.03 3.015 3.015 0 0 0 0-6.03zm.855 4.523c-.18.178-.42.282-.674.291v.312a.17.17 0 0 1-.15.14.18.18 0 0 1-.151-.16v-.292a1.065 1.065 0 0 1-.694-.312 1.005 1.005 0 0 1-.27-.482.15.15 0 0 1-.011 0c0-.115.087-.21.201-.221.092.006.17.071.191.16a.613.613 0 0 0 .15.302c.133.126.311.191.493.181a.744.744 0 0 0 .573-.15.513.513 0 0 0 .17-.403.503.503 0 0 0-.17-.371 1.327 1.327 0 0 0-.513-.272 1.528 1.528 0 0 1-.733-.402.854.854 0 0 1-.231-.633.915.915 0 0 1 .22-.633c.168-.168.388-.27.624-.292V5.93a.17.17 0 0 1 .15-.141.18.18 0 0 1 .171.17v.352a.874.874 0 0 1 .624.332c.11.143.179.313.2.493v.05a.221.221 0 0 1-.18.21h-.07a.221.221 0 0 1-.192-.16.13.13 0 0 1 0-.06.804.804 0 0 0-.07-.302.533.533 0 0 0-.432-.19.573.573 0 0 0-.432.14.543.543 0 0 0-.141.412c-.01.146.05.287.16.382.154.123.333.212.523.261.2.06.39.147.563.262a.884.884 0 0 1 .392.763.864.864 0 0 1-.291.644z"/>
            <path d="M18.09 3.015c.555 0 1.005.45 1.005 1.005V20.1c0 .555-.45 1.005-1.005 1.005H6.03c-.555 0-1.005-.45-1.005-1.005V4.02c0-.555.45-1.005 1.005-1.005h12.06m0-1.005H6.03c-1.11 0-2.01.9-2.01 2.01V20.1c0 1.11.9 2.01 2.01 2.01h12.06c1.11 0 2.01-.9 2.01-2.01V4.02c0-1.11-.9-2.01-2.01-2.01z"/>
            <path d="M18.09 5.407h-4.02a.372.372 0 0 1-.372-.382.362.362 0 0 1 .372-.372h4.02a.372.372 0 0 1 .382.372.382.382 0 0 1-.382.382zM18.09 7.417h-4.02a.372.372 0 0 1-.372-.382.362.362 0 0 1 .372-.372h4.02a.372.372 0 0 1 .382.372c0 .21-.171.382-.382.382zM18.09 9.427h-4.02a.372.372 0 0 1-.372-.382.362.362 0 0 1 .372-.372h4.02a.372.372 0 0 1 .382.372.382.382 0 0 1-.382.382zM18.09 11.437h-4.02a.372.372 0 0 1-.372-.382.362.362 0 0 1 .372-.372h4.02a.372.372 0 0 1 .382.372.382.382 0 0 1-.382.382zM18.09 13.447H6.03a.372.372 0 0 1-.372-.382.362.362 0 0 1 .372-.372h12.06a.372.372 0 0 1 .382.372c0 .21-.171.382-.382.382zM18.09 15.457H6.03a.372.372 0 0 1-.372-.382.362.362 0 0 1 .372-.372h12.06a.372.372 0 0 1 .382.372c0 .21-.171.382-.382.382zM18.09 17.467H6.03a.372.372 0 0 1-.372-.382.362.362 0 0 1 .372-.372h12.06a.372.372 0 0 1 .382.372c0 .21-.171.382-.382.382zM18.09 19.477H6.03a.372.372 0 0 1-.372-.382.362.362 0 0 1 .372-.372h12.06a.372.372 0 0 1 .382.372.382.382 0 0 1-.382.382z"/>
        </g>
    </g>
</svg>
