<svg xmlns="http://www.w3.org/2000/svg" width="24" height="24" viewBox="0 0 24 24">
    <defs>
        <clipPath id="20sqjamlra">
            <path d="M2170 0v2800H0V0h2170z"/>
        </clipPath>
        <clipPath id="fgon7efzgb">
            <path d="M15.111 0a1.007 1.007 0 0 1 0 2H.889a1.007 1.007 0 0 1 0-2H15.11z"/>
        </clipPath>
        <clipPath id="1yxbyk64rc">
            <path d="M1 0c.512 0 .942.384 1 .892v14.216a.95.95 0 0 1-.89.892H1a.95.95 0 0 1-1-.892V.892A1.007 1.007 0 0 1 1 0z"/>
        </clipPath>
    </defs>
    <g clip-path="url(#20sqjamlra)" transform="translate(-1509 -2389)">
        <g clip-path="url(#fgon7efzgb)" transform="translate(1513 2400)">
            <path fill="#E1111B" d="M0 0h16v2H0V0z"/>
        </g>
        <g clip-path="url(#1yxbyk64rc)" transform="translate(1520 2393)">
            <path fill="#E1111B" d="M0 0h2v16.001H0V0z"/>
        </g>
    </g>
</svg>