<?xml version="1.0" encoding="UTF-8"?>
<svg width="48px" height="48px" viewBox="0 0 48 48" version="1.1" xmlns="http://www.w3.org/2000/svg" xmlns:xlink="http://www.w3.org/1999/xlink">
    <title>Capa_6</title>
    <g id="Page-1" stroke="none" stroke-width="1" fill="none" fill-rule="evenodd">
        <g id="002---Solicitar-Vehículo-móvil---002M" transform="translate(-156.000000, -190.000000)" fill="#E1111C" fill-rule="nonzero">
            <g id="11--Modal/Pop-up/Pequeño/06-Two-texts/Two-buttons/01-Symbol" transform="translate(40.000000, 162.000000)">
                <g id="Icono" transform="translate(112.000000, 24.000000)">
                    <g id="04-iconos/01-24x24_/Dialog-Icons/Resultado-exitoso" transform="translate(4.000000, 4.000000)">
                        <g id="Icon" transform="translate(0.666667, 0.666667)">
                            <g id="Mask" transform="translate(-0.000000, -0.000000)">
                                <g id="Capa_6" transform="translate(-0.000000, 0.000000)">
                                    <path d="M23.3333333,2.33333334 C34.9313132,2.33333334 44.3333333,11.7353536 44.3333333,23.3333333 C44.3333333,34.9313132 34.9313132,44.3333333 23.3333333,44.3333333 C11.7353536,44.3333333 2.33333334,34.9313132 2.33333334,23.3333333 C2.33333334,11.7353536 11.7353536,2.33333334 23.3333333,2.33333334 M23.3333334,0 C10.4466892,0 0,10.4466892 0,23.3333334 C0,36.2199776 10.4466892,46.6666669 23.3333334,46.6666669 C36.2199776,46.6666669 46.6666669,36.2199776 46.6666669,23.3333334 C46.6666669,17.1449486 44.2083406,11.210024 39.8324917,6.83417513 C35.4566429,2.45832629 29.5217182,0 23.3333334,0 L23.3333334,0 Z" id="Shape"></path>
                                    <g id="Group" transform="translate(14.000000, 9.333333)">
                                        <circle id="Oval" cx="9.33333333" cy="28" r="2.33333333"></circle>
                                        <path d="M9.57032924,23.3333333 L9.57032924,23.3333333 C8.47174922,23.3333333 7.58117416,22.4817069 7.58117416,21.4311724 L7.58117416,18.3306501 C7.54589725,17.9700267 7.54589725,17.6070418 7.58117416,17.2464184 C7.89987908,15.8333508 8.81377764,14.6084726 10.1074011,13.860572 C10.465449,13.5752478 10.8831716,13.2709021 11.3406773,12.8714483 C13.3298323,11.2546115 14.1254944,10.4937471 14.5034338,9.52364505 C15.0016185,8.16406331 14.7712155,6.65731427 13.8867958,5.4910639 C12.7996003,4.32003877 11.2033771,3.70103235 9.57032924,3.81716229 C8.18102808,3.7341991 6.8101134,4.15533612 5.73125993,4.99650206 C4.66128491,5.925688 4.02990536,7.22927509 3.98080346,8.61060781 C3.94527064,9.29018447 3.53330614,9.9000117 2.90009299,10.2103735 C2.26687984,10.5207353 1.5086182,10.4844803 0.910937883,10.1152655 C0.31325757,9.74605059 -0.0330395508,9.09996837 0.0024932979,8.42039172 C0.112148256,5.99509738 1.24629873,3.71617105 3.14535833,2.10521747 C4.94489439,0.675644378 7.23241666,-0.0693175973 9.57032924,0.0128404534 C12.4351705,-0.137894423 15.1993686,1.04557053 16.9898777,3.18944919 C18.6881409,5.3779666 19.1286566,8.23389929 18.1634792,10.7980929 C17.2118082,12.7478141 15.7445343,14.4262935 13.9066873,15.6676248 C13.389507,16.1051218 12.9320013,16.4475108 12.5341703,16.7518565 C12.1363393,17.0562023 11.4799181,17.5888074 11.4600266,17.7409802 C11.440135,17.8931531 11.4600266,17.8931531 11.4600266,18.2545637 L11.4600266,21.3741076 C11.4938883,22.4105673 10.6533896,23.2819908 9.57032924,23.3333333 Z" id="Path"></path>
                                    </g>
                                </g>
                            </g>
                        </g>
                    </g>
                </g>
            </g>
        </g>
    </g>
</svg>