<?xml version="1.0" encoding="utf-8"?>
<!-- Generator: Adobe Illustrator 27.1.1, SVG Export Plug-In . SVG Version: 6.00 Build 0)  -->
<svg version="1.1" id="Capa_1" xmlns="http://www.w3.org/2000/svg" xmlns:xlink="http://www.w3.org/1999/xlink" x="0px" y="0px"
	 viewBox="0 0 24 24" style="enable-background:new 0 0 24 24;" xml:space="preserve">
<path d="M21.9,6.7c-0.4-0.2-0.9-0.2-1.3,0l-3.1,1.9V7.2c0-1.5-1.2-2.7-2.7-2.7H4.2c-1.5,0-2.7,1.2-2.7,2.7v9.7
	c0,1.5,1.2,2.7,2.7,2.7h10.7c1.5,0,2.7-1.2,2.7-2.7v-1.4l3.1,1.9c0.2,0.1,0.4,0.2,0.7,0.2c0.2,0,0.4-0.1,0.6-0.2
	c0.4-0.2,0.6-0.6,0.6-1V7.7C22.5,7.3,22.3,6.9,21.9,6.7z M16.5,16.8c0,0.9-0.7,1.7-1.7,1.7H4.2c-0.9,0-1.7-0.7-1.7-1.7V7.2
	c0-0.9,0.7-1.7,1.7-1.7h10.7c0.9,0,1.7,0.7,1.7,1.7V16.8z M21.5,16.3c0,0.1-0.1,0.2-0.1,0.2c0,0-0.1,0.1-0.3,0l-3.6-2.2V9.7l3.6-2.2
	c0.1-0.1,0.2,0,0.3,0c0,0,0.1,0.1,0.1,0.2V16.3z"/>
</svg>
