<svg width="32" height="32" viewBox="0 0 32 32" xmlns="http://www.w3.org/2000/svg">
    <g fill="#6E6E6E" fill-rule="nonzero">
        <path d="M24.667 6.667H7.333a4.667 4.667 0 0 0-4.666 4.666v9.334a4.667 4.667 0 0 0 4.666 4.666h17.334a4.667 4.667 0 0 0 4.666-4.666v-9.334a4.667 4.667 0 0 0-4.666-4.666zM7.333 8h17.334A3.333 3.333 0 0 1 28 11.333v9.334A3.333 3.333 0 0 1 24.667 24H7.333A3.333 3.333 0 0 1 4 20.667v-9.334A3.333 3.333 0 0 1 7.333 8z"/>
        <path d="M11.333 18.667h9.334c.368 0 .666.298.666.666v1.334a.667.667 0 0 1-.666.666h-9.334a.667.667 0 0 1-.666-.666v-1.334c0-.368.298-.666.666-.666zM23.333 10.667h1.334c.368 0 .666.298.666.666v1.334a.667.667 0 0 1-.666.666h-1.334a.667.667 0 0 1-.666-.666v-1.334c0-.368.298-.666.666-.666zM23.333 14.667h1.334c.368 0 .666.298.666.666v1.334a.667.667 0 0 1-.666.666h-1.334a.667.667 0 0 1-.666-.666v-1.334c0-.368.298-.666.666-.666zM18 10.667h1.333c.369 0 .667.298.667.666v1.334a.667.667 0 0 1-.667.666H18a.667.667 0 0 1-.667-.666v-1.334c0-.368.299-.666.667-.666zM18 14.667h1.333c.369 0 .667.298.667.666v1.334a.667.667 0 0 1-.667.666H18a.667.667 0 0 1-.667-.666v-1.334c0-.368.299-.666.667-.666zM12.667 10.667H14c.368 0 .667.298.667.666v1.334a.667.667 0 0 1-.667.666h-1.333a.667.667 0 0 1-.667-.666v-1.334c0-.368.298-.666.667-.666zM12.667 14.667H14c.368 0 .667.298.667.666v1.334a.667.667 0 0 1-.667.666h-1.333a.667.667 0 0 1-.667-.666v-1.334c0-.368.298-.666.667-.666zM7.333 10.667h1.334c.368 0 .666.298.666.666v1.334a.667.667 0 0 1-.666.666H7.333a.667.667 0 0 1-.666-.666v-1.334c0-.368.298-.666.666-.666zM7.333 14.667h1.334c.368 0 .666.298.666.666v1.334a.667.667 0 0 1-.666.666H7.333a.667.667 0 0 1-.666-.666v-1.334c0-.368.298-.666.666-.666z"/>
    </g>
</svg>
