<svg xmlns="http://www.w3.org/2000/svg" width="20" height="16" viewBox="0 0 20 16"><defs><style>.a{fill:#fff;opacity:0;}.b{fill:#ff5f00;}.c{fill:#eb001b;}.d{fill:#f79e1b;}</style></defs><g transform="translate(12292 6206)"><rect class="a" width="20" height="16" transform="translate(-12292 -6206)"/><g transform="translate(-12292 -6205)"><g transform="translate(0 1)"><path class="b" d="M0,.291H6V9.712H0Z" transform="translate(7 1)"/><path class="c" d="M7.639,6A5.927,5.927,0,0,1,10,1.283a6.315,6.315,0,0,0-8.36.646,5.872,5.872,0,0,0,0,8.141,6.315,6.315,0,0,0,8.36.646A5.927,5.927,0,0,1,7.639,6Z"/><path class="d" d="M20,6a5.987,5.987,0,0,1-3.479,5.4A6.333,6.333,0,0,1,10,10.717a5.893,5.893,0,0,0,0-9.434A6.333,6.333,0,0,1,16.521.6,5.987,5.987,0,0,1,20,6Z"/><path class="d" d="M19.238,11v-.829h.154V10H19v.169h.154V11ZM20,11V10h-.12l-.138.688L19.6,10h-.12v1h.085v-.754l.13.65h.088l.13-.652V11Z"/></g></g></g></svg>