<?xml version="1.0" encoding="UTF-8"?>
<svg width="22px" height="22px" viewBox="0 0 22 22" version="1.1" xmlns="http://www.w3.org/2000/svg" xmlns:xlink="http://www.w3.org/1999/xlink">
    <title>Capa_5</title>
    <g id="Transaccionalidad" stroke="none" stroke-width="1" fill="none" fill-rule="evenodd">
        <g id="999---AportesDafuturo---002" transform="translate(-292.000000, -571.000000)" fill="#717171" fill-rule="nonzero">
            <g id="Textfield-3" transform="translate(32.000000, 521.000000)">
                <g id="01-iconos/24x24_/General-icons/Ocultar" transform="translate(260.741707, 50.010000)">
                    <g id="Icon" transform="translate(0.000000, -0.000000)">
                        <g id="Capa_5" transform="translate(-0.000000, 0.000000)">
                            <path d="M11.055,2.51250001 L9.04500004,2.51250001 C8.76747695,2.51250001 8.54250004,2.2875231 8.54250004,2.01000001 C8.54250004,1.73247692 8.76747695,1.50750001 9.04500004,1.50750001 L11.055,1.50750001 C11.3325231,1.50750001 11.5575,1.73247692 11.5575,2.01000001 C11.5575,2.2875231 11.3325231,2.51250001 11.055,2.51250001 Z" id="Path"></path>
                            <path d="M17.0850001,19.5975001 L3.01500001,19.5975001 C1.62738457,19.5975001 0.502500002,18.4726155 0.502500002,17.0850001 L0.502500002,4.02000002 C0.502500002,2.63238458 1.62738457,1.50750001 3.01500001,1.50750001 L5.02500002,1.50750001 C5.30252311,1.50750001 5.52750002,1.73247692 5.52750002,2.01000001 C5.52750002,2.2875231 5.30252311,2.51250001 5.02500002,2.51250001 L3.01500001,2.51250001 C2.18243075,2.51250001 1.50750001,3.18743075 1.50750001,4.02000002 L1.50750001,17.0850001 C1.50750001,17.9175693 2.18243075,18.5925001 3.01500001,18.5925001 L17.0850001,18.5925001 C17.9175693,18.5925001 18.5925001,17.9175693 18.5925001,17.0850001 L18.5925001,4.02000002 C18.5925001,3.18743075 17.9175693,2.51250001 17.0850001,2.51250001 L15.0750001,2.51250001 C14.797477,2.51250001 14.5725001,2.2875231 14.5725001,2.01000001 C14.5725001,1.73247692 14.797477,1.50750001 15.0750001,1.50750001 L17.0850001,1.50750001 C18.4726155,1.50750001 19.5975001,2.63238458 19.5975001,4.02000002 L19.5975001,17.0850001 C19.5975001,18.4726155 18.4726155,19.5975001 17.0850001,19.5975001 Z" id="Path"></path>
                            <path d="M7.03500003,4.02000002 C6.47995385,4.02000002 6.03000003,3.57004619 6.03000003,3.01500001 L6.03000003,1.005 C6.03000003,0.449953828 6.47995385,0 7.03500003,0 C7.59004621,0 8.04000003,0.449953828 8.04000003,1.005 L8.04000003,3.01500001 C8.04000003,3.57004619 7.59004621,4.02000002 7.03500003,4.02000002 Z" id="Path"></path>
                            <path d="M13.0650001,4.02000002 C12.5099539,4.02000002 12.0600001,3.57004619 12.0600001,3.01500001 L12.0600001,1.005 C12.0600001,0.449953828 12.5099539,0 13.0650001,0 C13.6200462,0 14.0700001,0.449953828 14.0700001,1.005 L14.0700001,3.01500001 C14.0700001,3.57004619 13.6200462,4.02000002 13.0650001,4.02000002 Z" id="Path"></path>
                            <path d="M17.0850001,7.03500003 L3.01500001,7.03500003 C2.73747692,7.03500003 2.51250001,6.81002312 2.51250001,6.53250003 C2.51250001,6.25497694 2.73747692,6.03000003 3.01500001,6.03000003 L17.0850001,6.03000003 C17.3625232,6.03000003 17.5875001,6.25497694 17.5875001,6.53250003 C17.5875001,6.81002312 17.3625232,7.03500003 17.0850001,7.03500003 Z" id="Path"></path>
                            <path d="M10.98465,8.79375004 C11.1622648,8.79375004 11.30625,8.93773526 11.30625,9.11535004 L11.30625,10.98465 C11.30625,11.1622648 11.1622648,11.30625 10.98465,11.30625 L9.11535004,11.30625 C8.93773526,11.30625 8.79375004,11.1622648 8.79375004,10.98465 L8.79375004,9.11535004 C8.79375004,8.93773526 8.93773526,8.79375004 9.11535004,8.79375004 L10.98465,8.79375004 M10.98465,8.04000003 L9.11535004,8.04000003 C8.52145063,8.04000003 8.04000003,8.52145063 8.04000003,9.11535004 L8.04000003,10.98465 C8.04000003,11.2698506 8.15329551,11.5433701 8.35496276,11.7450373 C8.55663,11.9467046 8.83014948,12.0600001 9.11535004,12.0600001 L10.98465,12.0600001 C11.2698506,12.0600001 11.5433701,11.9467046 11.7450373,11.7450373 C11.9467046,11.5433701 12.0600001,11.2698506 12.0600001,10.98465 L12.0600001,9.11535004 C12.0600001,8.83014948 11.9467046,8.55663 11.7450373,8.35496276 C11.5433701,8.15329551 11.2698506,8.04000003 10.98465,8.04000003 Z" id="Shape"></path>
                            <path d="M16.0096501,8.79375004 C16.1872648,8.79375004 16.3312501,8.93773526 16.3312501,9.11535004 L16.3312501,10.98465 C16.3312501,11.1622648 16.1872648,11.30625 16.0096501,11.30625 L14.1403501,11.30625 C13.9627353,11.30625 13.8187501,11.1622648 13.8187501,10.98465 L13.8187501,9.11535004 C13.8187501,8.93773526 13.9627353,8.79375004 14.1403501,8.79375004 L16.0096501,8.79375004 M16.0096501,8.04000003 L14.1403501,8.04000003 C13.5464507,8.04000003 13.0650001,8.52145063 13.0650001,9.11535004 L13.0650001,10.98465 C13.0650001,11.2698506 13.1782955,11.5433701 13.3799628,11.7450373 C13.58163,11.9467046 13.8551495,12.0600001 14.1403501,12.0600001 L16.0096501,12.0600001 C16.2948506,12.0600001 16.5683701,11.9467046 16.7700373,11.7450373 C16.9717046,11.5433701 17.0850001,11.2698506 17.0850001,10.98465 L17.0850001,9.11535004 C17.0850001,8.83014948 16.9717046,8.55663 16.7700373,8.35496276 C16.5683701,8.15329551 16.2948506,8.04000003 16.0096501,8.04000003 Z" id="Shape"></path>
                            <path d="M16.0096501,13.8187501 C16.1872648,13.8187501 16.3312501,13.9627353 16.3312501,14.1403501 L16.3312501,16.0096501 C16.3312501,16.1872648 16.1872648,16.3312501 16.0096501,16.3312501 L14.1403501,16.3312501 C13.9627353,16.3312501 13.8187501,16.1872648 13.8187501,16.0096501 L13.8187501,14.1403501 C13.8187501,13.9627353 13.9627353,13.8187501 14.1403501,13.8187501 L16.0096501,13.8187501 M16.0096501,13.0650001 L14.1403501,13.0650001 C13.5464507,13.0650001 13.0650001,13.5464507 13.0650001,14.1403501 L13.0650001,16.0096501 C13.0650001,16.2948506 13.1782955,16.5683701 13.3799628,16.7700373 C13.58163,16.9717046 13.8551495,17.0850001 14.1403501,17.0850001 L16.0096501,17.0850001 C16.2948506,17.0850001 16.5683701,16.9717046 16.7700373,16.7700373 C16.9717046,16.5683701 17.0850001,16.2948506 17.0850001,16.0096501 L17.0850001,14.1403501 C17.0850001,13.8551495 16.9717046,13.58163 16.7700373,13.3799628 C16.5683701,13.1782955 16.2948506,13.0650001 16.0096501,13.0650001 Z" id="Shape"></path>
                            <path d="M5.95965002,13.8187501 C6.1372648,13.8187501 6.28125003,13.9627353 6.28125003,14.1403501 L6.28125003,16.0096501 C6.28125003,16.1872648 6.1372648,16.3312501 5.95965002,16.3312501 L4.09035002,16.3312501 C3.91273524,16.3312501 3.76875002,16.1872648 3.76875002,16.0096501 L3.76875002,14.1403501 C3.76875002,13.9627353 3.91273524,13.8187501 4.09035002,13.8187501 L5.95965002,13.8187501 M5.95965002,13.0650001 L4.09035002,13.0650001 C3.49645061,13.0650001 3.01500001,13.5464507 3.01500001,14.1403501 L3.01500001,16.0096501 C3.01500001,16.2948506 3.12829549,16.5683701 3.32996274,16.7700373 C3.53162998,16.9717046 3.80514946,17.0850001 4.09035002,17.0850001 L5.95965002,17.0850001 C6.24485058,17.0850001 6.51837006,16.9717046 6.72003731,16.7700373 C6.92170455,16.5683701 7.03500003,16.2948506 7.03500003,16.0096501 L7.03500003,14.1403501 C7.03500003,13.5464507 6.55354943,13.0650001 5.95965002,13.0650001 Z" id="Shape"></path>
                            <path d="M5.95965002,8.79375004 C6.1372648,8.79375004 6.28125003,8.93773526 6.28125003,9.11535004 L6.28125003,10.98465 C6.28125003,11.1622648 6.1372648,11.30625 5.95965002,11.30625 L4.09035002,11.30625 C3.91273524,11.30625 3.76875002,11.1622648 3.76875002,10.98465 L3.76875002,9.11535004 C3.76875002,8.93773526 3.91273524,8.79375004 4.09035002,8.79375004 L5.95965002,8.79375004 M5.95965002,8.04000003 L4.09035002,8.04000003 C3.49645061,8.04000003 3.01500001,8.52145063 3.01500001,9.11535004 L3.01500001,10.98465 C3.01500001,11.2698506 3.12829549,11.5433701 3.32996274,11.7450373 C3.53162998,11.9467046 3.80514946,12.0600001 4.09035002,12.0600001 L5.95965002,12.0600001 C6.24485058,12.0600001 6.51837006,11.9467046 6.72003731,11.7450373 C6.92170455,11.5433701 7.03500003,11.2698506 7.03500003,10.98465 L7.03500003,9.11535004 C7.03500003,8.52145063 6.55354943,8.04000003 5.95965002,8.04000003 Z" id="Shape"></path>
                            <path d="M10.98465,13.8187501 C11.1622648,13.8187501 11.30625,13.9627353 11.30625,14.1403501 L11.30625,16.0096501 C11.30625,16.1872648 11.1622648,16.3312501 10.98465,16.3312501 L9.11535004,16.3312501 C8.93773526,16.3312501 8.79375004,16.1872648 8.79375004,16.0096501 L8.79375004,14.1403501 C8.79375004,13.9627353 8.93773526,13.8187501 9.11535004,13.8187501 L10.98465,13.8187501 M10.98465,13.0650001 L9.11535004,13.0650001 C8.52145063,13.0650001 8.04000003,13.5464507 8.04000003,14.1403501 L8.04000003,16.0096501 C8.04000003,16.2948506 8.15329551,16.5683701 8.35496276,16.7700373 C8.55663,16.9717046 8.83014948,17.0850001 9.11535004,17.0850001 L10.98465,17.0850001 C11.2698506,17.0850001 11.5433701,16.9717046 11.7450373,16.7700373 C11.9467046,16.5683701 12.0600001,16.2948506 12.0600001,16.0096501 L12.0600001,14.1403501 C12.0600001,13.8551495 11.9467046,13.58163 11.7450373,13.3799628 C11.5433701,13.1782955 11.2698506,13.0650001 10.98465,13.0650001 Z" id="Shape"></path>
                        </g>
                    </g>
                </g>
            </g>
        </g>
    </g>
</svg>