<?xml version="1.0" encoding="UTF-8"?><svg version="1.1" width="9px" height="13px" viewBox="0 0 9.0 13.0" xmlns="http://www.w3.org/2000/svg" xmlns:xlink="http://www.w3.org/1999/xlink"><defs><clipPath id="i0"><path d="M360,0 L360,848 L0,848 L0,0 L360,0 Z"></path></clipPath><clipPath id="i1"><path d="M8.50455093,0.312010302 C10.3390237,1.49290533 10.0714563,7.42395474 9.82313841,9.29079863 C9.76346511,9.77411853 9.42467475,10 9.09165922,10 C8.70859512,10 8.3332308,9.70436102 8.40637872,9.14796182 C8.6354472,7.40734581 8.90878942,2.33331726 7.75574723,1.56764552 C6.60270503,0.801973779 2.46407277,3.2667392 1.09351177,4.2367008 C0.516028196,4.64195872 0.000142872816,4.14036899 0.000142872816,3.60057872 C-0.00493162341,3.344193 0.125399606,3.09972953 0.354332796,2.93622147 C1.81729118,1.89816325 6.70665207,-0.936981341 8.50455093,0.312010302 Z"></path></clipPath></defs><g transform="translate(-44.0 -482.0)"><g clip-path="url(#i0)"><g transform="translate(24.0 240.0)"><g transform="translate(0.0 104.0)"><g transform="translate(16.0 136.0)"><g transform="translate(9.29034627006331e-13 0.9999999999999982)"><g transform="translate(8.66025403784439 1.9539925233402755e-14) rotate(59.99999999999999)"><g clip-path="url(#i1)"><polygon points="-1.27805752e-14,-8.8817842e-16 10,-8.8817842e-16 10,10 -1.27805752e-14,10 -1.27805752e-14,-8.8817842e-16" stroke="none" fill="#E1111B"></polygon></g></g></g></g></g></g></g></g></svg>