<?xml version="1.0" encoding="UTF-8"?>
<svg width="22px" height="18px" viewBox="0 0 22 18" version="1.1" xmlns="http://www.w3.org/2000/svg" xmlns:xlink="http://www.w3.org/1999/xlink">
    <title>tomar foto</title>
    <g id="Page-1" stroke="none" stroke-width="1" fill="none" fill-rule="evenodd">
        <g id="Activación-tarjeta-y-clave---002J" transform="translate(-292.000000, -252.000000)" fill="#000000" fill-rule="nonzero">
            <g id="Contenedor" transform="translate(16.000000, 193.000000)">
                <g id="Textfield-1" transform="translate(16.000000, 23.000000)">
                    <g id="01-iconos/24x24_/Arrows/Down" transform="translate(260.000000, 36.000000)">
                        <g id="tomar-foto" transform="translate(0.000000, 0.000000)">
                            <path d="M11,16 C7.96243388,16 5.5,13.5375661 5.5,10.5 C5.5,7.46243388 7.96243388,5 11,5 C14.0375661,5 16.5,7.46243388 16.5,10.5 C16.4944963,13.5352835 14.0352835,15.9944963 11,16 L11,16 Z M11,6 C8.51471863,6 6.5,8.01471863 6.5,10.5 C6.5,12.9852814 8.51471863,15 11,15 C13.4852814,15 15.5,12.9852814 15.5,10.5 C15.4945005,8.01700015 13.4829999,6.00549947 11,6 L11,6 Z" id="Shape"></path>
                            <path d="M19,17.9999998 L3,17.9999998 C1.61928813,17.9999998 0.5,16.8807119 0.5,15.4999998 L0.5,5.49999978 C0.5,4.11928813 1.61928813,2.99999978 3,2.99999978 L5.73,2.99999978 L7.58,0.22 C7.67533039,0.0820917599 7.83234994,-2.231486e-07 8,-2.231486e-07 L14,-2.231486e-07 C14.1676501,-2.231486e-07 14.3246696,0.0820917599 14.42,0.22 L16.27,2.99999978 L19,2.99999978 C20.3807119,2.99999978 21.5,4.11928813 21.5,5.49999978 L21.5,15.4999998 C21.5,16.8807119 20.3807119,17.9999998 19,17.9999998 Z M3,4 C2.17157288,4 1.5,4.67157288 1.5,5.5 L1.5,15.5 C1.5,16.3284271 2.17157288,17 3,17 L19,17 C19.8284271,17 20.5,16.3284271 20.5,15.5 L20.5,5.5 C20.5,4.67157288 19.8284271,4 19,4 L16,4 C15.8323499,4.00015657 15.6753304,3.91790824 15.58,3.78 L13.73,1 L8.27,1 L6.42,3.78 C6.32466961,3.91790824 6.16765006,4.00015657 6,4 L3,4 Z" id="Shape"></path>
                            <path d="M17.5,7 C16.9477153,7 16.5,6.55228475 16.5,6 C16.5,5.44771525 16.9477153,5 17.5,5 C18.0522847,5 18.5,5.44771525 18.5,6 C18.5,6.55228475 18.0522847,7 17.5,7 Z" id="Path"></path>
                            <circle id="Oval" cx="11" cy="10.5" r="4"></circle>
                        </g>
                    </g>
                </g>
            </g>
        </g>
    </g>
</svg>