<?xml version="1.0" encoding="UTF-8"?>
<svg width="21px" height="12px" viewBox="0 0 21 12" version="1.1" xmlns="http://www.w3.org/2000/svg" xmlns:xlink="http://www.w3.org/1999/xlink">
    <title>24x24_ver</title>
    <g id="Page-1" stroke="none" stroke-width="1" fill="none" fill-rule="evenodd">
        <g id="002---Solicitar-Vehículo-móvil---002O-Copy-8" transform="translate(-292.000000, -382.000000)" fill-rule="nonzero">
            <g id="Card" transform="translate(16.000000, 152.000000)">
                <g id="Documento/Textfield/-Canales-/-Unselected" transform="translate(16.000000, 192.000000)">
                    <g id="01-iconos/24x24_/Arrows/Down" transform="translate(260.731707, 38.000000)">
                        <g id="24x24_ver" transform="translate(0.000000, 0.000000)">
                            <path d="M10,0 C3.64,0 0,6 0,6 C0,6 3.64,12 10,12 C16.36,12 20,6 20,6 C20,6 16.36,0 10,0 Z M10,10 C7.790861,10 6,8.209139 6,6 C6,3.790861 7.790861,2 10,2 C12.209139,2 14,3.790861 14,6 C14,7.06086596 13.5785726,8.07828161 12.8284271,8.82842712 C12.0782816,9.57857264 11.060866,10 10,10 Z" id="Shape" fill="#727171"></path>
                            <path d="M11.19,1.11 C15.19,1.65 17.86,4.75 18.78,6 C17.78,7.37 14.67,11.0000234 10,11.0000234 C12.535492,11.0077035 14.6753648,9.11636086 14.9791693,6.59912388 C15.2829737,4.0818869 13.6545213,1.73574641 11.19,1.14 M8.81,1.14 C6.34547867,1.73574641 4.71702626,4.0818869 5.02083072,6.59912388 C5.32463519,9.11636086 7.46450797,11.0077035 10,11.0000234 C5.35,11.0000234 2.24,7.4 1.22,6 C2.15,4.75 4.83,1.65 8.81,1.11 M10,0 C3.64,0 0,6 0,6 C0,6 3.64,12 10,12 C16.36,12 20,6 20,6 C20,6 16.36,0 10,0 Z M10,10 C7.790861,10 6,8.209139 6,6 C6,3.790861 7.790861,2 10,2 C12.209139,2 14,3.790861 14,6 C14,8.209139 12.209139,10 10,10 L10,10 Z" id="Shape" fill="#717171"></path>
                        </g>
                    </g>
                </g>
            </g>
        </g>
    </g>
</svg>