<?xml version="1.0" encoding="UTF-8"?>
<svg width="29.69987px" height="29.69987px" viewBox="0 0 29.69987 29.69987" version="1.1" xmlns="http://www.w3.org/2000/svg" xmlns:xlink="http://www.w3.org/1999/xlink">
    <title>04-iconos/01-24x24_/General icons/Enviar</title>
    <g id="Page-1" stroke="none" stroke-width="1" fill="#FFFFFF" fill-rule="evenodd">
        <g id="A020-Vivi-TecladoYChips-EnviarMensaje" transform="translate(-315.150736, -318.150065)" fill-rule="nonzero">
            <g id="Group-5" transform="translate(8.000000, 312.000000)">
                <g id="Group" transform="translate(304.000000, 0.000000)">
                    <g id="04-iconos/01-24x24_/General-icons/Enviar" transform="translate(18.000671, 21.000000) rotate(-315.000000) translate(-18.000671, -21.000000) translate(7.500182, 10.499510)">
                        <g id="Shape-Mask" transform="translate(0.000000, -0.000000)">
                            <g id="Mask" transform="translate(0.000000, 0.000000)" fill="#FFFFFF">
                                <g id="Enviar" transform="translate(0.000000, 0.000000)">
                                    <path d="M20.1464617,0.147410959 C20.3417239,-0.0478511874 20.6583064,-0.0478511874 20.8535685,0.147410959 C21.0271349,0.32097731 21.04642,0.590401712 20.911424,0.785269852 L20.8535685,0.85451774 L9.85356852,11.8545177 C9.65830638,12.0497799 9.34172389,12.0497799 9.14646174,11.8545177 C8.97289539,11.6809514 8.95361024,11.411527 9.08860629,11.2166588 L9.14646174,11.147411 L20.1464617,0.147410959 Z" id="Path"></path>
                                    <path d="M0.334839882,7.02903517 L0.249433121,7.06760158 C-0.0938140537,7.26157888 -0.0873090789,7.78709015 0.296945861,7.95787012 L9.12101509,11.8789643 L13.0431093,20.7040336 C13.2270262,21.1178466 13.8223474,21.0935591 13.9719443,20.6661396 L20.9719443,0.666139561 C21.1103378,0.270729373 20.7302501,-0.109358395 20.3348399,0.0290351709 L0.334839882,7.02903517 Z M19.6850151,1.31496434 L13.4440151,19.1459643 L9.95692087,11.2978951 L9.91195658,11.217582 C9.86000691,11.1420664 9.78792152,11.081764 9.70308433,11.0440586 L1.85401509,7.55596434 L19.6850151,1.31496434 Z" id="Path"></path>
                                </g>
                            </g>
                        </g>
                    </g>
                </g>
            </g>
        </g>
    </g>
</svg>