<svg width="24" height="24" viewBox="0 0 24 24" xmlns="http://www.w3.org/2000/svg">
    <g fill-rule="nonzero" fill="#6E6E6E">
        <g fill="#707070" transform="translate(2 2)">
            <path d="M10.104 20.082a2.237 2.237 0 0 1-2.235-2.234.946.946 0 0 0-.609-.917.936.936 0 0 0-1.056.173 2.282 2.282 0 0 1-3.21.048 2.22 2.22 0 0 1-.654-1.58c.001-.593.237-1.161.655-1.58a.953.953 0 0 0 .234-1.076.932.932 0 0 0-.854-.568H2.23a2.234 2.234 0 0 1 0-4.47 1 1 0 0 0 .743-1.665 2.292 2.292 0 0 1-.703-1.628 2.22 2.22 0 0 1 .655-1.581 2.314 2.314 0 0 1 3.162 0 .951.951 0 0 0 1.074.234l.158-.043a.93.93 0 0 0 .481-.81v-.146a2.234 2.234 0 1 1 4.469 0 .959.959 0 0 0 .564.927.924.924 0 0 0 1.031-.184 2.28 2.28 0 0 1 3.21-.048c.42.419.656.988.655 1.581a2.247 2.247 0 0 1-.656 1.58.953.953 0 0 0-.233 1.076l.042.157c.163.296.474.48.812.481h.145a2.234 2.234 0 0 1 0 4.47.96.96 0 0 0-.928.564.927.927 0 0 0 .184 1.03c.443.427.697 1.014.703 1.629a2.22 2.22 0 0 1-.655 1.58 2.312 2.312 0 0 1-3.16 0 .954.954 0 0 0-1.076-.234.931.931 0 0 0-.569.854v.145a2.237 2.237 0 0 1-2.234 2.235zM6.866 15.84c.265 0 .527.056.769.164a1.906 1.906 0 0 1 1.234 1.755 1.258 1.258 0 0 0 1.235 1.323c.681 0 1.233-.553 1.234-1.234V17.7a1.942 1.942 0 0 1 3.295-1.38 1.244 1.244 0 0 0 1.803.056c.233-.231.363-.546.362-.874a1.244 1.244 0 0 0-.362-.873 1.947 1.947 0 0 1-.442-2.186 1.926 1.926 0 0 1 1.765-1.165 1.255 1.255 0 0 0 1.314-1.234c0-.681-.553-1.234-1.234-1.234h-.147a1.932 1.932 0 0 1-1.77-1.17l-.04-.17a1.923 1.923 0 0 1 .428-2.026c.26-.24.412-.575.419-.928a1.226 1.226 0 0 0-.363-.874 1.276 1.276 0 0 0-1.747 0 1.95 1.95 0 0 1-2.185.44 1.925 1.925 0 0 1-1.165-1.763 1.255 1.255 0 0 0-1.235-1.314c-.681 0-1.233.553-1.234 1.234v.148a1.931 1.931 0 0 1-1.17 1.768l-.169.04a1.92 1.92 0 0 1-2.026-.429 1.244 1.244 0 0 0-1.803-.055 1.227 1.227 0 0 0-.362.874c.001.327.131.64.362.873.59.564.767 1.437.442 2.186A1.907 1.907 0 0 1 2.32 8.88a1.258 1.258 0 0 0-1.324 1.234c.001.682.553 1.234 1.235 1.235h.147a1.942 1.942 0 0 1 1.38 3.294c-.26.24-.41.576-.418.93 0 .327.13.642.363.873.49.461 1.256.461 1.747 0a2.021 2.021 0 0 1 1.417-.605z"/>
            <circle cx="10.034" cy="10.069" r="2.978"/>
        </g>
    </g>
</svg>
