<svg width="23" height="24" viewBox="0 0 23 24" xmlns="http://www.w3.org/2000/svg">
    <g fill-rule="nonzero" fill="#4E4E4E">
        <g fill="#717171">
            <path d="M12.366 4.5h-1.903a.488.488 0 0 1-.475-.5c0-.276.213-.5.475-.5h1.903c.263 0 .475.224.475.5s-.212.5-.475.5z"/>
            <path d="M18.073 21.5H4.756c-1.313 0-2.378-1.12-2.378-2.5V6c0-1.38 1.065-2.5 2.378-2.5H6.66c.262 0 .475.224.475.5s-.213.5-.475.5H4.756c-.788 0-1.427.672-1.427 1.5v13c0 .828.64 1.5 1.427 1.5h13.317c.788 0 1.427-.672 1.427-1.5V6c0-.828-.639-1.5-1.427-1.5h-1.902a.488.488 0 0 1-.476-.5c0-.276.213-.5.476-.5h1.902c1.314 0 2.378 1.12 2.378 2.5v13c0 1.38-1.064 2.5-2.378 2.5z"/>
            <path d="M8.561 6c-.525 0-.951-.448-.951-1V3c0-.552.426-1 .951-1 .525 0 .951.448.951 1v2c0 .552-.426 1-.951 1zM14.268 6c-.525 0-.95-.448-.95-1V3c0-.552.425-1 .95-1 .526 0 .952.448.952 1v2c0 .552-.426 1-.952 1zM18.073 9H4.756a.488.488 0 0 1-.476-.5c0-.276.213-.5.476-.5h13.317c.263 0 .476.224.476.5s-.213.5-.476.5zM12.3 10.75c.167 0 .304.143.304.32v1.86c0 .177-.137.32-.305.32H10.53a.312.312 0 0 1-.304-.32v-1.86c0-.177.136-.32.304-.32h1.77m0-.75h-1.77c-.562 0-1.018.48-1.018 1.07v1.86c0 .284.107.556.298.757.191.2.45.313.72.313h1.77c.27 0 .528-.113.719-.313.19-.201.298-.473.298-.757v-1.86c0-.284-.107-.556-.298-.757a.993.993 0 0 0-.72-.313zM17.055 10.75c.168 0 .305.143.305.32v1.86c0 .177-.137.32-.305.32h-1.769a.312.312 0 0 1-.304-.32v-1.86c0-.177.136-.32.304-.32h1.77m0-.75h-1.77c-.562 0-1.018.48-1.018 1.07v1.86c0 .284.108.556.298.757.191.2.45.313.72.313h1.77c.27 0 .528-.113.72-.313.19-.201.297-.473.297-.757v-1.86c0-.284-.107-.556-.298-.757a.993.993 0 0 0-.72-.313zM17.055 15.75c.168 0 .305.143.305.32v1.86c0 .177-.137.32-.305.32h-1.769a.312.312 0 0 1-.304-.32v-1.86c0-.177.136-.32.304-.32h1.77m0-.75h-1.77c-.562 0-1.018.48-1.018 1.07v1.86c0 .284.108.556.298.757.191.2.45.313.72.313h1.77c.27 0 .528-.113.72-.313.19-.201.297-.473.297-.757v-1.86c0-.284-.107-.556-.298-.757a.993.993 0 0 0-.72-.313zM7.543 15.75c.168 0 .305.143.305.32v1.86c0 .177-.137.32-.305.32h-1.77a.312.312 0 0 1-.303-.32v-1.86c0-.177.136-.32.304-.32h1.77m0-.75h-1.77c-.562 0-1.018.48-1.018 1.07v1.86c0 .284.107.556.298.757.191.2.45.313.72.313h1.77c.27 0 .528-.113.719-.313.19-.201.298-.473.298-.757v-1.86c0-.59-.456-1.07-1.018-1.07zM7.543 10.75c.168 0 .305.143.305.32v1.86c0 .177-.137.32-.305.32h-1.77a.312.312 0 0 1-.303-.32v-1.86c0-.177.136-.32.304-.32h1.77m0-.75h-1.77c-.562 0-1.018.48-1.018 1.07v1.86c0 .284.107.556.298.757.191.2.45.313.72.313h1.77c.27 0 .528-.113.719-.313.19-.201.298-.473.298-.757v-1.86c0-.59-.456-1.07-1.018-1.07zM12.3 15.75c.167 0 .304.143.304.32v1.86c0 .177-.137.32-.305.32H10.53a.312.312 0 0 1-.304-.32v-1.86c0-.177.136-.32.304-.32h1.77m0-.75h-1.77c-.562 0-1.018.48-1.018 1.07v1.86c0 .284.107.556.298.757.191.2.45.313.72.313h1.77c.27 0 .528-.113.719-.313.19-.201.298-.473.298-.757v-1.86c0-.284-.107-.556-.298-.757a.993.993 0 0 0-.72-.313z"/>
        </g>
    </g>
</svg>
