<svg xmlns="http://www.w3.org/2000/svg" xmlns:xlink="http://www.w3.org/1999/xlink" width="20" height="16" viewBox="0 0 20 16"><defs><style>.a{fill:#fff;opacity:0;}.b{fill:url(#a);}</style><linearGradient id="a" y1="0.5" x2="1" y2="0.5" gradientUnits="objectBoundingBox"><stop offset="0" stop-color="#272158"/><stop offset="1" stop-color="#164193"/></linearGradient></defs><g transform="translate(12242 6206)"><rect class="a" width="20" height="16" transform="translate(-12242 -6206)"/><path class="b" d="M7.592.115,4.975,6.361H3.267L1.978,1.376A.684.684,0,0,0,1.594.827,6.757,6.757,0,0,0,0,.295L.038.114h2.75a.753.753,0,0,1,.745.637l.681,3.615L5.9.114Zm6.693,4.207c.007-1.649-2.28-1.74-2.264-2.476.005-.224.219-.462.686-.523A3.051,3.051,0,0,1,14.3,1.6L14.585.277A4.342,4.342,0,0,0,13.073,0c-1.6,0-2.722.849-2.731,2.065-.011.9.8,1.4,1.415,1.7s.841.5.838.776c0,.419-.5.6-.967.611a3.381,3.381,0,0,1-1.66-.395L9.675,6.125a4.893,4.893,0,0,0,1.8.332c1.7,0,2.808-.838,2.813-2.137m4.218,2.04H20L18.7.114H17.314a.736.736,0,0,0-.688.458L14.2,6.36h1.7l.337-.933h2.073Zm-1.8-2.213L17.556,1.8l.49,2.346ZM9.906.114,8.57,6.36H6.954L8.291.114Z" transform="translate(-12242 -6201)"/></g></svg>