<svg width="16" height="16" viewBox="0 0 16 16" xmlns="http://www.w3.org/2000/svg">
    <g fill="#E1111C" fill-rule="nonzero">
        <path d="M7.992 2.357a2.974 2.974 0 1 1 0 5.948 2.974 2.974 0 0 1 0-5.948m0-.69a3.664 3.664 0 1 0 0 7.329 3.664 3.664 0 0 0 0-7.33zM13.647 14.343h-.006a.355.355 0 0 1-.328-.376l.02-1.18a2.45 2.45 0 0 0-.6-1.671 1.984 1.984 0 0 0-1.495-.696H4.765a2.221 2.221 0 0 0-2.095 2.325v1.228c.01.194-.14.36-.333.37a.353.353 0 0 1-.334-.37v-1.228A2.928 2.928 0 0 1 4.765 9.68h6.473c.76.005 1.478.34 1.97.918.53.61.813 1.395.791 2.202l-.019 1.18a.352.352 0 0 1-.333.363z"/>
    </g>
</svg>
