<svg xmlns="http://www.w3.org/2000/svg" width="16" height="16" viewBox="0 0 16 16">
    <defs>
        <clipPath id="za93pz7wla">
            <path d="M2170 0v2800H0V0h2170z"/>
        </clipPath>
        <clipPath id="ywlfp0xbrb">
            <path d="M5.73 0c.087 0 .172.035.234.098l2.623 2.617a.331.331 0 0 1 .098.237l-.026 7.389a.992.992 0 0 1-1 .981H1A.993.993 0 0 1 0 10.34V.983A.993.993 0 0 1 1 0h4.73zM5.59.667H1a.326.326 0 0 0-.333.316v9.356c.005.18.153.32.333.317h6.66a.326.326 0 0 0 .333-.317l.025-7.25L5.59.667z"/>
        </clipPath>
        <clipPath id="kjle760vcc">
            <path d="M.333 0c.184 0 .334.15.334.333v1.898c-.004.18.139.33.319.334h1.93a.333.333 0 1 1 0 .667H.985a.994.994 0 0 1-.986-1V.332C0 .15.15 0 .333 0z"/>
        </clipPath>
        <clipPath id="xskiey4mrd">
            <path d="M6.95 0a1.345 1.345 0 0 1 1.351 1.337v8.33a1.345 1.345 0 0 1-1.35 1.338h-.794a.333.333 0 0 1 0-.667h.794a.678.678 0 0 0 .683-.67v-8.33a.678.678 0 0 0-.683-.671H1.064a.683.683 0 0 0-.492.205.334.334 0 1 1-.476-.468C.35.144.7-.002 1.064 0H6.95z"/>
        </clipPath>
        <clipPath id="7o4p3duune">
            <path d="M5.73 1.346c.087 0 .172.036.234.098l2.623 2.617a.331.331 0 0 1 .098.237l-.026 7.389a.992.992 0 0 1-1 .982H1A.993.993 0 0 1 0 11.686V2.329a.993.993 0 0 1 1-.983h4.73zm-.294.666H1a.326.326 0 0 0-.333.317v9.357c.005.179.153.32.333.316h6.66a.326.326 0 0 0 .333-.316l.023-6.979H6.422a.994.994 0 0 1-.986-1V2.012zM10.666 0a1.345 1.345 0 0 1 1.35 1.337v8.33a1.345 1.345 0 0 1-1.35 1.338h-.793a.333.333 0 0 1 0-.667h.793a.678.678 0 0 0 .684-.67v-8.33a.678.678 0 0 0-.684-.671H4.779a.683.683 0 0 0-.492.205.334.334 0 0 1-.476-.468c.255-.26.604-.406.968-.404h5.887zM6.102 2.522v1.185c-.003.18.14.33.32.334h1.201L6.102 2.522z"/>
        </clipPath>
        <clipPath id="pj639kh6jf">
            <path d="M16 0v16H0V0h16z"/>
        </clipPath>
    </defs>
    <g clip-path="url(#za93pz7wla)" transform="translate(-526 -2249)">
        <g clip-path="url(#ywlfp0xbrb)" transform="translate(528 2252.013)">
            <path fill="#6E6E6E" d="M0 0h8.685v11.322H0V0z"/>
        </g>
        <g clip-path="url(#kjle760vcc)" transform="translate(533.436 2252.143)">
            <path fill="#6E6E6E" d="M0 0h3.248v3.232H0V0z"/>
        </g>
        <g clip-path="url(#xskiey4mrd)" transform="translate(531.715 2250.667)">
            <path fill="#6E6E6E" d="M0 0h8.301v11.005H0V0z"/>
        </g>
        <g clip-path="url(#7o4p3duune)" transform="translate(528 2250.667)">
            <g clip-path="url(#pj639kh6jf)" transform="translate(-2 -1.667)">
                <path fill="#DD131C" d="M2 1.667h12.016v12.668H2V1.667z"/>
            </g>
        </g>
    </g>
</svg>