<?xml version="1.0" encoding="UTF-8"?>
<svg width="51px" height="51px" viewBox="0 0 51 51" version="1.1" xmlns="http://www.w3.org/2000/svg" xmlns:xlink="http://www.w3.org/1999/xlink">
    <title>Error</title>
    <g id="Page-1" stroke="none" stroke-width="1" fill="none" fill-rule="evenodd">
        <g id="002---Solicitar-Vehículo-móvil---0016F" transform="translate(-155.000000, -183.000000)" fill="#E1111C" fill-rule="nonzero">
            <g id="11--Modal/Pop-up/Pequeño/05-Two-texts/One-button/01-Symbol" transform="translate(40.000000, 156.000000)">
                <g id="Ícono" transform="translate(115.000000, 27.000000)">
                    <g id="Icon" transform="translate(0.333333, 0.333333)">
                        <g id="Mask" transform="translate(-0.000000, -0.000000)">
                            <g id="Error" transform="translate(0.000000, 0.000000)">
                                <path d="M26.3233333,24.6666667 L34.8166667,16.15 C35.1084336,15.8582331 35.2223815,15.4329736 35.1155874,15.0344126 C35.0087933,14.6358516 34.6974817,14.32454 34.2989207,14.2177459 C33.9003598,14.1109518 33.4751002,14.2248998 33.1833333,14.5166667 L24.6666667,23.01 L16.15,14.5166667 C15.6989675,14.0656341 14.9676992,14.0656341 14.5166667,14.5166667 C14.0656341,14.9676992 14.0656341,15.6989675 14.5166667,16.15 L23.01,24.6666667 L14.5166667,33.1833333 C14.2910865,33.3950444 14.1631232,33.6906329 14.1631232,34 C14.1631232,34.3093671 14.2910865,34.6049556 14.5166667,34.8166667 C14.7283778,35.0422469 15.0239662,35.1702102 15.3333333,35.1702102 C15.6427005,35.1702102 15.9382889,35.0422469 16.15,34.8166667 L24.6666667,26.3233333 L33.1833333,34.8166667 C33.3950444,35.0422469 33.6906329,35.1702102 34,35.1702102 C34.3093671,35.1702102 34.6049556,35.0422469 34.8166667,34.8166667 C35.0422469,34.6049556 35.1702102,34.3093671 35.1702102,34 C35.1702102,33.6906329 35.0422469,33.3950444 34.8166667,33.1833333 L26.3233333,24.6666667 Z" id="Path"></path>
                                <path d="M24.6666667,49.1666667 C11.1356903,49.1666667 0.166666667,38.197643 0.166666667,24.6666667 C0.166666667,11.1356903 11.1356903,0.166666667 24.6666667,0.166666667 C38.197643,0.166666667 49.1666667,11.1356903 49.1666667,24.6666667 C49.1538035,38.1923113 38.1923113,49.1538035 24.6666667,49.1666667 Z M24.6666667,2.5 C12.4243547,2.5 2.5,12.4243547 2.5,24.6666667 C2.5,36.9089786 12.4243547,46.8333333 24.6666667,46.8333333 C36.9089786,46.8333333 46.8333333,36.9089786 46.8333333,24.6666667 C46.8204726,12.4296858 36.9036476,2.51286074 24.6666667,2.5 Z" id="Shape"></path>
                            </g>
                        </g>
                    </g>
                </g>
            </g>
        </g>
    </g>
</svg>