<?xml version="1.0" encoding="UTF-8"?>
<svg width="20px" height="18px" viewBox="0 0 20 18" version="1.1" xmlns="http://www.w3.org/2000/svg" xmlns:xlink="http://www.w3.org/1999/xlink">
    <title>015-TextfieldPruebas/Icon/Icon</title>
    <g id="Moleculas" stroke="none" stroke-width="1" fill="none" fill-rule="evenodd">
        <g id="000-Moléculas---Text-Fields---004A" transform="translate(-1074.000000, -3883.000000)" fill="#6E6E6E" fill-rule="nonzero">
            <g id="Group-24" transform="translate(776.000000, 3808.000000)">
                <g id="06-Textfield/1-TextfieldCompleto/Completo-Copy-3" transform="translate(0.000000, 40.000000)">
                    <g id="Mask" transform="translate(298.000000, 35.000000)">
                        <path d="M18.36,0.650000018 C18.5560611,0.846061097 18.5560611,1.16393891 18.36,1.36 L15.2599607,4.46160352 C18.3241899,6.23767572 20,9 20,9 C20,9 16.36,15 10,15 C8.38194747,15 6.93994652,14.6116509 5.6891465,14.0325532 L2.36,17.36 C2.26635528,17.4572289 2.1347292,17.5084169 2,17.5 C1.86890966,17.504213 1.74202199,17.4534579 1.65,17.36 C1.55534367,17.2661167 1.50210084,17.1383188 1.50210084,17.005 C1.50210084,16.8716812 1.55534367,16.7438833 1.65,16.65 L4.75409902,13.5465331 C1.68093654,11.7707745 0,9 0,9 C0,9 3.64,3 10,3 L10.3505291,3.00609663 C11.8337091,3.05778138 13.1631918,3.43391514 14.3267348,3.97481456 L17.65,0.65 C17.8460611,0.453938931 18.1639389,0.453938939 18.36,0.650000018 Z M10.441,12.9749542 L10.512,12.9659542 L10.6678198,12.9438753 C11.100318,12.8706398 11.516847,12.7268886 11.9009475,12.5194394 C11.9241658,12.5077389 11.9468411,12.4951776 11.9693802,12.4824038 C12.025703,12.4504834 12.0811748,12.4172361 12.1357533,12.3827043 L12.1006055,12.404051 C12.172278,12.3598251 12.2426404,12.3132814 12.3115752,12.2644687 L12.4809796,12.1378385 L12.5583133,12.0750357 C12.5874995,12.0506346 12.6164086,12.025876 12.644992,12.0006787 L12.623,12.0179542 L12.7185143,11.9342503 C12.7706439,11.8859306 12.8214836,11.8362388 12.870976,11.7852324 L12.893,11.7609542 L12.9056551,11.7490336 C12.9171391,11.7368956 12.9285453,11.7246878 12.9398684,11.7124161 L12.94,11.7109542 L12.98,11.6669542 L13.0084687,11.6361288 L13.018,11.6239542 L13.0856396,11.545528 C13.1107381,11.5151388 13.1353963,11.4843726 13.1596044,11.453239 L13.2760248,11.2952019 L13.3842629,11.1323411 L13.434037,11.0512153 L13.453,11.0179542 L13.454,11.0159542 L13.472,10.9849542 L13.4818278,10.9689968 C13.7421011,10.5087174 13.9096073,9.99947672 13.9722493,9.47048016 L13.974,9.4509542 L13.993024,9.23624075 C13.9976619,9.15779656 14,9.07901881 14,9 C14,8.0790731 13.688781,7.23083528 13.1657793,6.55472287 L7.55472287,12.1657793 C8.23083528,12.688781 9.0790731,13 10,13 L10.2258045,12.9937337 L10.263,12.9899542 L10.421,12.9769542 L10.441,12.9749542 Z M10,5 L9.80035966,5.00489531 C7.68396847,5.10892112 6,6.85780461 6,9 C6,9.92642762 6.31494795,10.7792952 6.84361507,11.457374 L12.457214,5.84349035 C11.7791611,5.31489841 10.9263548,5 10,5 Z" id="Combined-Shape"></path>
                    </g>
                </g>
            </g>
        </g>
    </g>
</svg>