<svg width="16" height="16" viewBox="0 0 16 16" xmlns="http://www.w3.org/2000/svg">
    <path d="M14.222 5.861h-.389a5.833 5.833 0 0 0-11.666 0h-.39A.778.778 0 0 0 1 6.64V9.75c0 .43.348.778.778.778h.778a.778.778 0 1 0 1.555 0V5.86a.778.778 0 0 0-.778-.778A.778.778 0 0 0 3 5.17a5.04 5.04 0 0 1 9.987 0 .778.778 0 0 0-.32-.086.778.778 0 0 0-.777.778v4.667c0 .43.348.778.778.778a.918.918 0 0 0 .155 0 5.056 5.056 0 0 1-2.94 2.823.716.716 0 0 0-.319-.078H6.444a.778.778 0 0 0 0 1.556h3.112c.43 0 .777-.349.777-.778a5.841 5.841 0 0 0 3.531-4.231h.358c.43 0 .778-.348.778-.778V6.709a.778.778 0 0 0-.778-.848z" fill="#FFF" fill-rule="nonzero"/>
</svg>
