<?xml version="1.0" encoding="UTF-8"?>
<svg width="20px" height="20px" viewBox="0 0 16 16" version="1.1" xmlns="http://www.w3.org/2000/svg" xmlns:xlink="http://www.w3.org/1999/xlink">
    <title>Shape Mask</title>
    <g id="HU93:-Abrir-cuenta-movil" stroke="none" stroke-width="1" fill="none" fill-rule="evenodd">
        <g id="006---información-laboral-nuevo-cliente-con-seguro---0010D" transform="translate(-32.000000, -356.000000)">
            <g id="Card" transform="translate(16.000000, 336.000000)">
                <g id="Shape-Mask" transform="translate(16.000000, 20.000000)">
                    <g id="Capa_6">
                        <path d="M8.00000003,0.800000003 C11.9764502,0.800000003 15.2000001,4.02354982 15.2000001,8.00000003 C15.2000001,11.9764502 11.9764502,15.2000001 8.00000003,15.2000001 C4.02354982,15.2000001 0.800000003,11.9764502 0.800000003,8.00000003 C0.800000003,4.02354982 4.02354982,0.800000003 8.00000003,0.800000003 M8,0 C3.58172202,0 0,3.58172202 0,8 C0,12.4182781 3.58172202,16 8,16 C12.4182781,16 16,12.4182781 16,8 C16,5.87826811 15.1571453,3.84343679 13.6568543,2.34314576 C12.1565633,0.842854726 10.121732,0 8,0 L8,0 Z" id="Shape" fill="#016D38" fill-rule="nonzero"></path>
                        <g id="Group" transform="translate(3.618639, 4.000000)" fill="#016D38">
                            <path d="M0.230818652,4.71975294 L2.58534849,7.20280452 C2.77535599,7.40318356 3.09182681,7.41159135 3.29220586,7.22158385 C3.30308196,7.21127069 3.31348883,7.2004737 3.32339493,7.1892256 L8.93072305,0.822263086 C9.0717391,0.662143349 9.06437775,0.420090019 8.91389215,0.268835459 C8.77665217,0.130894198 8.5535737,0.130325698 8.41563243,0.267565679 C8.40951136,0.27365563 8.40361624,0.279968539 8.39795899,0.286491619 L2.96180083,6.5546473 L2.96180083,6.5546473 L0.706575656,4.24025315 C0.579462723,4.10980524 0.3706684,4.1071017 0.240220482,4.23421463 C0.238879916,4.23552093 0.237550495,4.23683861 0.236232363,4.23816754 C0.104610257,4.37086787 0.102212916,4.58412727 0.230818652,4.71975294 Z" id="Path-2"></path>
                        </g>
                    </g>
                    <rect id="Rectangle"  fill-rule="nonzero" x="-1.59999997" y="-1.59999997" width="19.2" height="19.2"></rect>
                </g>
            </g>
        </g>
    </g>
</svg>