<svg width="24" height="24" viewBox="0 0 24 24" xmlns="http://www.w3.org/2000/svg">
    <g fill-rule="nonzero" fill="none">
        <g transform="translate(1 3)" fill="#6E6E6E">
            <path d="M11 16a5.5 5.5 0 1 1 5.5-5.5A5.51 5.51 0 0 1 11 16zm0-10a4.5 4.5 0 1 0 4.5 4.5A4.51 4.51 0 0 0 11 6z"/>
            <path d="M19 18H3a2.5 2.5 0 0 1-2.5-2.5v-10A2.5 2.5 0 0 1 3 3h2.73L7.58.22A.51.51 0 0 1 8 0h6a.51.51 0 0 1 .42.22L16.27 3H19a2.5 2.5 0 0 1 2.5 2.5v10A2.5 2.5 0 0 1 19 18zM3 4a1.5 1.5 0 0 0-1.5 1.5v10A1.5 1.5 0 0 0 3 17h16a1.5 1.5 0 0 0 1.5-1.5v-10A1.5 1.5 0 0 0 19 4h-3a.51.51 0 0 1-.42-.22L13.73 1H8.27L6.42 3.78A.51.51 0 0 1 6 4H3z"/>
            <path d="M17.5 7a1 1 0 1 1 0-2 1 1 0 0 1 0 2z"/>
            <circle cx="11" cy="10.5" r="4"/>
        </g>

    </g>
</svg>
