<?xml version="1.0" encoding="UTF-8"?>
<svg width="32px" height="32px" viewBox="0 0 32 32" version="1.1" xmlns="http://www.w3.org/2000/svg" xmlns:xlink="http://www.w3.org/1999/xlink">
    <title>Group 2</title>
    <g id="Page-1" stroke="none" stroke-width="1" fill="none" fill-rule="evenodd">
        <g id="F012-Vivi-AsesorActivo" transform="translate(-40.000000, -112.000000)" fill-rule="nonzero">
            <g id="Group-2" transform="translate(40.000000, 112.000000)">
                <circle id="Oval-Copy" fill="#F1F2F8" cx="16" cy="16" r="16"></circle>
                <g id="Mask" transform="translate(10.000000, 9.666667)" fill="#E1111C">
                    <path d="M5.99222824,0.690513333 C7.1951032,0.690513333 8.27954584,1.41507433 8.73987924,2.52638047 C9.20021264,3.63768661 8.94578134,4.91686468 8.09522697,5.7674324 C7.2446726,6.61800012 5.96549852,6.87245149 4.85418516,6.41213553 C3.74287179,5.95181957 3.0182749,4.8673883 3.0182749,3.66451333 C3.02011186,2.0227982 4.35051313,0.692376054 5.99222824,0.690513333 M5.99222824,0 C4.51009191,0 3.17389315,0.892807482 2.60669978,2.26212109 C2.0395064,3.6314347 2.35301753,5.20758594 3.40104332,6.25561744 C4.4490691,7.30364895 6.02521863,7.61716868 7.39453534,7.04998278 C8.76385204,6.48279688 9.6566749,5.14660299 9.6566749,3.66446667 C9.6566749,1.6406439 8.01605101,0 5.99222824,0 Z" id="Shape"></path>
                    <path d="M11.6466882,12.6764533 L11.6405016,12.6764533 C11.446793,12.6616216 11.3009883,12.4938267 11.3133549,12.2999467 L11.3325616,11.1206133 C11.3487417,10.5081507 11.1349347,9.91183965 10.7332749,9.44919333 C10.3595915,9.01132267 9.81411474,8.75739094 9.23848157,8.75333333 L2.76452157,8.75333333 C1.54638904,8.82143868 0.61125407,9.8593861 0.670121571,11.078 L0.670121571,12.3064533 C0.679830134,12.5005255 0.53081793,12.6659291 0.336788238,12.6764533 C0.142760251,12.6659255 -0.00624993166,12.5005242 0.00345490478,12.3064533 L0.00345490478,11.078 C-0.0739538247,9.47155368 1.15873104,8.10332587 2.76452157,8.01333333 L9.23848157,8.01333333 C9.99737207,8.01870839 10.7164619,8.35363908 11.2088949,8.93109333 C11.7385945,9.5405586 12.0206014,10.3264386 11.9992616,11.13364 L11.9800549,12.3129733 C11.9863592,12.5046598 11.8382045,12.6661886 11.6466882,12.6764533 L11.6466882,12.6764533 Z" id="Path"></path>
                </g>
            </g>
        </g>
    </g>
</svg>