<svg width="24" height="24" viewBox="0 0 24 24" xmlns="http://www.w3.org/2000/svg">
    <g fill="#717171" fill-rule="nonzero">
        <path d="M7.2 21.82a5 5 0 0 1-3.55-8.57l9.6-9.6a.495.495 0 0 1 .7.7L4.35 14a4.03 4.03 0 0 0 5.7 5.7l9.6-9.6a.495.495 0 0 1 .7.7l-9.6 9.6a5 5 0 0 1-3.55 1.42z"/>
        <path d="M8 18.76a2.76 2.76 0 0 1-1.95-4.71l8.8-8.8a.495.495 0 0 1 .7.7l-8.8 8.8a1.79 1.79 0 0 0 0 2.5 1.83 1.83 0 0 0 2.5 0l5.6-5.6a.495.495 0 0 1 .7.7L10 18a2.74 2.74 0 0 1-2 .76z"/>
        <path d="M20 10.9a.47.47 0 0 1-.35-.15.48.48 0 0 1 0-.7l.8-.8a2.9 2.9 0 0 0-4.1-4.1l-.8.8a.495.495 0 1 1-.7-.7l.8-.8a3.89 3.89 0 0 1 5.5 5.5l-.8.8a.47.47 0 0 1-.35.15z"/>
    </g>
</svg>
