<?xml version="1.0" encoding="UTF-8"?>
<svg width="22px" height="19px" viewBox="0 0 22 19" version="1.1" xmlns="http://www.w3.org/2000/svg" xmlns:xlink="http://www.w3.org/1999/xlink">
    <title>Capa_5</title>
    <g id="Page-1" stroke="none" stroke-width="1" fill="none" fill-rule="evenodd">
        <g id="001---Preventa-Inmobiliaria---001" transform="translate(-42.000000, -338.000000)" fill="#717171" fill-rule="nonzero">
            <g id="Contenerdor" transform="translate(16.000000, 160.000000)">
                <g id="Beneficio-2" transform="translate(26.000000, 176.000000)">
                    <g id="04-iconos/01-24x24_/General-icons/Concesionario-Copy-4" transform="translate(0.000000, 2.000000)">
                        <g id="Capa_5" transform="translate(0.000000, 0.000000)">
                            <path d="M17.0000001,8.28000003 C16.7260916,8.28532014 16.5053202,8.50609158 16.5000001,8.78000004 L16.5000001,10 C16.3766839,10.0555303 16.2647788,10.1335248 16.1700001,10.23 C16.0632922,10.3358142 15.9783579,10.4615169 15.9200001,10.6 L6.59000003,10.6 C6.53164216,10.4615169 6.44670794,10.3358142 6.34000003,10.23 C6.24047055,10.1346804 6.12551032,10.0569132 6.00000003,10 L6.00000003,5.26000002 C6.12811608,5.19459503 6.2433124,5.10650373 6.34000003,5.00000002 C6.43459636,4.89988853 6.51227749,4.78505555 6.57000003,4.66000002 L10.12,4.66000002 C10.3939085,4.65467991 10.6146799,4.43390847 10.62,4.16000002 C10.62,3.88385764 10.3961424,3.66000002 10.12,3.66000002 L5.85000002,3.66000002 C5.37183835,3.6762763 4.99428628,4.07159553 4.99993602,4.55000002 L4.99993602,10.71 C5.00547928,11.1976238 5.4023455,11.59 5.89000002,11.59 L16.6200001,11.59 C17.1037539,11.5845945 17.4945945,11.1937539 17.5000001,10.71 L17.5000001,8.78000004 C17.5000001,8.50385766 17.2761424,8.28000003 17.0000001,8.28000003 Z" id="Path"></path>
                            <path d="M16.7600001,7.26000003 L13.8700001,7.26000003 C13.4316987,7.30082739 13.0080538,7.09004686 12.776259,6.71581955 C12.5444642,6.34159223 12.5444642,5.86840782 12.776259,5.4941805 C13.0080538,5.11995319 13.4316987,4.90917266 13.8700001,4.95000002 L16.5100001,4.95000002 C16.5962367,4.94506032 16.6650604,4.87623668 16.6700001,4.79000002 C16.6700001,4.70163446 16.5983656,4.63000002 16.5100001,4.63000002 L12.0000001,4.63000002 C11.8391223,4.63002237 11.6849747,4.56543739 11.5721609,4.45074341 C11.4593472,4.33604943 11.3973187,4.18085543 11.4,4.02000002 C11.3797905,3.10425873 11.8847276,2.25751805 12.7000001,1.84000001 L14.3000001,1.05 C15.2311326,0.581963266 16.2578698,0.335546344 17.3000001,0.330000001 L19.9000001,0.330000001 C20.8499299,0.330000001 21.6200001,1.10007023 21.6200001,2.05000001 L21.6200001,4.14000002 C21.6192371,4.70129452 21.3566808,5.23010522 20.9100001,5.57000002 L20.1700001,6.13000003 C19.1835146,6.8618152 17.9882926,7.25788585 16.7600001,7.26000003 Z M13.8700001,6.00000003 C13.7853969,5.99983463 13.7152876,6.06556206 13.7100001,6.15000003 C13.7100001,6.23836559 13.7816345,6.31000003 13.8700001,6.31000003 L16.7600001,6.31000003 C17.7716979,6.30649999 18.7559671,5.9807454 19.5700001,5.38000002 L20.3100001,4.82000002 C20.5037115,4.66802833 20.6177856,4.43620032 20.6200001,4.19000002 L20.6200001,2.05000001 C20.6200001,1.65235499 20.2976451,1.33000001 19.9000001,1.33000001 L17.3300001,1.33000001 C16.4311874,1.33096419 15.5447689,1.53973457 14.7400001,1.94000001 L13.1500001,2.74000001 C12.7907491,2.91629005 12.5273723,3.24185299 12.4300001,3.63000002 L16.5100001,3.63000002 C16.9244282,3.63 17.3073755,3.85109475 17.5145896,4.21000001 C17.7218036,4.56890526 17.7218036,5.01109478 17.5145896,5.37000003 C17.3073755,5.72890529 16.9244282,5.95000004 16.5100001,5.95000002 L13.8700001,6.00000003 Z" id="Shape"></path>
                            <path d="M4.67000002,18.7400001 L2.10000001,18.7400001 C1.64034118,18.7400001 1.199794,18.5560745 0.876650298,18.2291733 C0.553506596,17.9022722 0.37465513,17.4596278 0.380000002,17.0000001 L0.380000002,14.9300001 C0.383806078,14.369426 0.645732718,13.8418836 1.09,13.5000001 L1.83000001,12.9400001 C2.81648545,12.2081849 4.0117075,11.8121142 5.24000002,11.81 L8.13000003,11.81 C8.77065035,11.81 9.29000004,12.3293497 9.29000004,12.9700001 C9.29000004,13.6106504 8.77065035,14.1300001 8.13000003,14.1300001 L5.49000002,14.1300001 C5.40163446,14.1300001 5.33000002,14.2016345 5.33000002,14.2900001 C5.33493972,14.3762367 5.40376336,14.4450604 5.49000002,14.4500001 L10,14.4500001 C10.3313709,14.4500001 10.6,14.7186292 10.6,15.0500001 C10.6207641,15.9686194 10.1108754,16.8171365 9.29000004,17.2300001 L7.70000003,18.0000001 C6.76162234,18.4798356 5.72392104,18.7332676 4.67000002,18.7400001 L4.67000002,18.7400001 Z M5.24000002,12.8100001 C4.22830223,12.8135001 3.24403298,13.1392547 2.43000001,13.7400001 L1.69000001,14.3000001 C1.49628862,14.4519717 1.38221452,14.6837998 1.38000001,14.9300001 L1.38000001,17.0000001 C1.38000001,17.3976451 1.70235499,17.7200001 2.10000001,17.7200001 L4.67000002,17.7200001 C5.56881274,17.7190359 6.45523123,17.5102655 7.26000003,17.1100001 L8.85000004,16.3100001 C9.20784778,16.1369672 9.4712545,15.8150256 9.57000004,15.4300001 L5.49000002,15.4300001 C4.84934971,15.4300001 4.33000002,14.9106504 4.33000002,14.2700001 C4.33000002,13.6293497 4.84934971,13.1100001 5.49000002,13.1100001 L8.13000003,13.1100001 C8.21836559,13.1100001 8.29000003,13.0383656 8.29000003,12.9500001 C8.29000003,12.8616345 8.21836559,12.7900001 8.13000003,12.7900001 L5.24000002,12.8100001 Z" id="Shape"></path>
                            <path d="M12.2100001,6.33000003 C12.2080407,6.08814342 12.2701445,5.85007881 12.3900001,5.64000002 C12.0422731,5.4321966 11.6450846,5.32167459 11.24,5.32000002 C9.97767429,5.31077671 8.94171839,6.31660373 8.91369163,7.57865202 C8.88566488,8.84070032 9.87594798,9.89152475 11.1374387,9.93834873 C12.3989295,9.98517271 13.4643892,9.01065328 13.5300001,7.75000003 C12.782757,7.70223754 12.2031647,7.07873674 12.2100001,6.33000003 L12.2100001,6.33000003 Z M11.8,8.63000004 C11.6791747,8.74896949 11.5192727,8.82003704 11.35,8.83000004 L11.35,9.00000004 C11.3392992,9.05013457 11.3001346,9.08929921 11.25,9.10000004 L11.25,9.10000004 C11.1971595,9.09023752 11.1591058,9.04372736 11.16,8.99000004 L11.16,8.99000004 L11.16,8.82000004 C10.9856172,8.81073173 10.8212349,8.73568762 10.7,8.61000004 C10.6267582,8.52341488 10.5753231,8.42054461 10.55,8.31000003 C10.5438447,8.29390169 10.5438447,8.27609838 10.55,8.26000003 C10.5542449,8.18272015 10.6131961,8.11955809 10.69,8.11000003 L10.69,8.11000003 C10.7532159,8.11306686 10.8065122,8.15816377 10.82,8.22000003 L10.82,8.22000003 C10.8305679,8.29580767 10.8656946,8.36606116 10.92,8.42000004 C11.0079119,8.50513728 11.1279356,8.54878227 11.25,8.54000004 C11.3653329,8.54713741 11.4792531,8.51153734 11.57,8.44000004 C11.6409056,8.37209491 11.6810021,8.27817691 11.6810021,8.18000003 C11.6810021,8.08182316 11.6409056,7.98790516 11.57,7.92000003 C11.4637512,7.84160257 11.345572,7.78082469 11.22,7.74000003 C11.0343048,7.69845325 10.864318,7.6047871 10.73,7.47000003 C10.6265924,7.35925384 10.5724745,7.21133153 10.58,7.06000003 C10.5755873,6.90312353 10.6289697,6.75009405 10.73,6.63000003 C10.8415393,6.51669562 10.9912596,6.44896502 11.15,6.44000003 L11.15,6.23000003 C11.1537432,6.18006772 11.1907365,6.138964 11.24,6.12998815 L11.24,6.12998815 C11.2991896,6.12917305 11.3501399,6.17163163 11.36,6.23000003 L11.36,6.48000003 C11.5213815,6.49289754 11.6700274,6.57265879 11.77,6.70000003 C11.8409449,6.79701562 11.8857154,6.91066377 11.9,7.03000003 L11.9,7.03000003 C11.8967919,7.09864521 11.847347,7.15633093 11.78,7.17000003 L11.73,7.17000003 C11.6739034,7.15611323 11.6287032,7.11467973 11.61,7.06000003 L11.61,7.06000003 C11.5976375,6.98181442 11.5629064,6.90887906 11.51,6.85000003 C11.450344,6.75447585 11.342213,6.70041035 11.23,6.71000003 C11.1241827,6.705577 11.0206008,6.74129487 10.94,6.81000003 C10.8751223,6.8849515 10.8395968,6.9808704 10.84,7.08000003 C10.8358735,7.17876779 10.8762417,7.27418358 10.95,7.34000003 C11.0514215,7.41788439 11.1668397,7.47559352 11.29,7.51000003 C11.4226395,7.5564813 11.5500099,7.61681465 11.67,7.69000003 C11.7562919,7.74274881 11.8256896,7.8190863 11.87,7.91000003 C11.9119341,7.99725032 11.9325008,8.09322801 11.93,8.19000003 C11.9489838,8.34830043 11.9019667,8.50743499 11.8,8.63000004 L11.8,8.63000004 Z" id="Shape"></path>
                        </g>
                    </g>
                </g>
            </g>
        </g>
    </g>
</svg>