<?xml version="1.0" encoding="UTF-8"?>
<svg width="15px" height="15px" viewBox="0 0 15 15" version="1.1" xmlns="http://www.w3.org/2000/svg" xmlns:xlink="http://www.w3.org/1999/xlink">
    <title>005-iconos/Generalicons/Cerrar</title>
    <g id="Page-1" stroke="none" stroke-width="1" fill="none" fill-rule="evenodd">
        <g id="001---Daviplata---008A-Copy-40" transform="translate(-325.000000, -485.000000)">
            <g id="Shape-Mask" transform="translate(325.000000, 485.000000)">
                <g id="Capa_5" fill="#4E4E4E">
                    <path d="M5.96658057,7.40267565 L0.700708819,12.698042 C0.313530539,13.0873889 0.314767224,13.7167276 0.703472685,14.1045499 C1.09201468,14.492209 1.721229,14.4915618 2.10897268,14.1031042 L7.40694537,8.79537638 L7.40694537,8.79537638 L12.7098866,14.1080818 C13.0922068,14.4911061 13.7126412,14.4916768 14.0956654,14.1093565 C14.097265,14.1077598 14.0988591,14.1061576 14.1004477,14.1045499 C14.4845745,13.7157858 14.4839475,13.0901862 14.0990421,12.7021929 L8.84170189,7.40267565 L8.84170189,7.40267565 L14.0979914,2.10798806 C14.4835659,1.71959684 14.4846614,1.09321017 14.1004477,0.703472685 C13.7194954,0.317043452 13.0974097,0.312603536 12.7109805,0.693555856 C12.7097236,0.694794866 12.7084702,0.69603726 12.70722,0.697283025 L7.4069454,5.97905735 L7.4069454,5.97905735 L2.11164684,0.702241748 C1.72225183,0.314205903 1.0921887,0.314756665 0.703472685,0.703472685 C0.314678465,1.0922669 0.313910726,1.72238971 0.701756381,2.11213018 L5.96658057,7.40267565 L5.96658057,7.40267565 Z" id="Path-4"></path>
                </g>
            </g>
        </g>
    </g>
</svg>