<?xml version="1.0" encoding="UTF-8"?>
<svg width="18px" height="18px" viewBox="0 0 18 18" version="1.1" xmlns="http://www.w3.org/2000/svg" xmlns:xlink="http://www.w3.org/1999/xlink">
    <title>Mask</title>
    <g id="Page-1" stroke="none" stroke-width="1" fill="none" fill-rule="evenodd">
        <g id="002---VM-No-Clientes-|-Vinculación---006T" transform="translate(-291.000000, -331.000000)" fill="#6E6E6E" fill-rule="nonzero">
            <g id="Card" transform="translate(16.000000, 152.000000)">
                <g id="Correo" transform="translate(16.000000, 144.000000)">
                    <g id="Mask" transform="translate(259.000000, 35.000000)">
                        <path d="M14.58575,1.00000173 L14.60055,1.00616173 L16.99612,3.42901173 L15.82957,4.59497173 L13.40508,2.17150173 L14.57098,1.00613173 C14.5746756,1.00189351 14.5801394,0.999625843 14.58575,1.00000173 M14.58575,8.61566286e-07 C14.3149935,-0.000351190763 14.0552571,0.107201144 13.86401,0.298861727 L12.37179,1.79046173 C12.270702,1.89151208 12.2139083,2.02858835 12.2139083,2.17152173 C12.2139083,2.3144551 12.270702,2.45153137 12.37179,2.55258173 L15.43707,5.61651173 C15.6538981,5.83323242 16.0053319,5.83323242 16.22216,5.61651173 L17.70306,4.13626173 C17.894461,3.94495951 18.0019972,3.68543875 18.0019972,3.41482673 C18.0019972,3.1442147 17.894461,2.88469394 17.70306,2.69339173 L15.30749,0.298891727 C15.1162461,0.107226458 14.8565076,-0.000326721015 14.58575,8.61566286e-07 L14.58575,8.61566286e-07 Z" id="Shape"></path>
                        <path d="M11.17712,4.42755173 L13.5537,6.80782173 L3.37505,17.0020717 L0.99999,17.0020717 L0.99999,14.6203017 L11.17712,4.42755173 M11.17712,3.3101712 C10.9866087,3.30994128 10.8038729,3.38571136 10.66943,3.52069173 L0.204,14.0022217 C0.0733662561,14.1330558 0,14.310386 0,14.4952717 L0,17.2738217 C0,17.6760484 0.326073304,18.0021217 0.7283,18.0021217 L3.41796,18.0021217 C3.65596336,18.0021217 3.8842002,17.9074894 4.05236,17.7390617 L14.43857,7.33682173 C14.7304408,7.04448926 14.7304408,6.5710142 14.43857,6.27868173 L11.68479,3.52068173 C11.5503538,3.38570968 11.3676307,3.30994038 11.17713,3.3101712 L11.17712,3.3101712 Z" id="Shape"></path>
                    </g>
                </g>
            </g>
        </g>
    </g>
</svg>